<svg width="15" height="16" viewBox="0 0 15 16" fill="none" xmlns="http://www.w3.org/2000/svg">
<path d="M10.6373 1.04987L9.21783 2.46927L13.0306 6.28172L14.4501 4.86232C15.1833 4.12915 15.1833 2.94143 14.4501 2.20827L13.2945 1.04987C12.5613 0.316709 11.3735 0.316709 10.6403 1.04987H10.6373ZM8.555 3.13205L1.71846 9.97099C1.41344 10.276 1.19055 10.6543 1.06736 11.0678L0.0291255 14.5958C-0.0441964 14.8451 0.0232598 15.1119 0.205098 15.2937C0.386937 15.4756 0.653828 15.543 0.90019 15.4726L4.42844 14.4345C4.84198 14.3113 5.22032 14.0884 5.52534 13.7834L12.3677 6.9445L8.555 3.13205Z" fill="#C7C7C7"/>
</svg>
